<svg width="1000" height="857" version="1.1" xmlns="http://www.w3.org/2000/svg" desc="Created with imagetracer.js version 1.2.6" ><path fill="rgb(20,6,7)" stroke="rgb(20,6,7)" stroke-width="1" opacity="0.9764705882352941" d="M 404.5 102 L 434.5 102 L 435.5 103 L 452.5 103 L 453.5 104 L 472.5 105 L 473.5 106 L 496.5 109 L 520.5 115 Q 572.7 130.8 605 166.5 L 625 194.5 L 640 230.5 L 647 262.5 L 648 297.5 L 647 298.5 L 647 308.5 Q 644 315 644 324.5 L 635 351.5 Q 619.9 384.9 593.5 407 Q 573 424.5 545.5 435 L 517.5 443 L 468.5 451 L 446.5 456 Q 425.6 461.1 414 475.5 L 409 485.5 L 407 500.5 L 408 501.5 L 408 510.5 L 410 520.5 L 415 538 Q 383.2 530 363 509.5 L 349 491.5 L 344 479.5 L 343 470.5 L 344 470.5 Q 345.5 482 351 489.5 L 369.5 510 L 385.5 521 L 399.5 528 L 406.5 529 L 406 527.5 L 401 507.5 L 401 488.5 Q 404.5 472 415.5 463 Q 427.8 452.8 445.5 448 L 476.5 441 L 481.5 441 L 516.5 434 L 545.5 425 Q 579.5 410.5 602 384.5 Q 621.1 362.6 631 331.5 L 636 308.5 L 637 274.5 L 631 240.5 L 621 212.5 Q 606.4 180.1 580.5 159 Q 548.1 132.9 500.5 122 L 473.5 117 L 456.5 116 L 455.5 115 L 399.5 114 L 398.5 115 L 380.5 115 L 379.5 116 L 368.5 116 L 367.5 117 L 350.5 118 L 349.5 119 L 343.5 119 L 342.5 120 L 336.5 120 L 335.5 121 L 305.5 125 L 268.5 133 L 240.5 142 L 212.5 155 L 193.5 167 Q 175.4 179.9 161 196.5 Q 139.8 220.8 129 255.5 L 122 288.5 L 121 317.5 L 122 318.5 L 122 333.5 L 123 334.5 L 125 353.5 L 133 379.5 Q 145.5 407 167.5 425 L 190.5 441 L 210.5 451 L 236.5 460 L 258.5 465 L 263.5 465 L 270.5 467 L 278.5 467 L 279.5 468 L 322.5 469 L 323.5 468 Q 333.8 469.3 340.5 467 L 340.5 468 L 319.5 472 L 288.5 473 L 287.5 472 L 262.5 471 L 240.5 467 L 203.5 455 L 170.5 437 L 143 411.5 Q 127.1 392.9 119 366.5 L 114 343.5 L 113 327.5 L 112 326.5 L 112 291.5 L 113 290.5 L 114 275.5 L 119 253.5 Q 125.4 231.4 136 213.5 Q 151.7 187.2 174.5 168 Q 190.4 154.4 209.5 144 Q 229.5 133.5 252.5 126 L 282.5 118 L 324.5 110 L 352.5 107 L 353.5 106 L 361.5 106 L 362.5 105 L 384.5 104 L 385.5 103 L 403.5 103 L 404.5 102 Z " /><path fill="rgb(20,6,7)" stroke="rgb(20,6,7)" stroke-width="1" opacity="0.9764705882352941" d="M 516.5 517 L 535.5 520 L 576.5 535 L 581.5 536 L 605.5 536 L 606.5 535 L 643.5 535 L 672.5 540 L 700.5 550 Q 740.1 567.9 775.5 590 L 813.5 608 L 847.5 618 L 870.5 622 L 887.5 623 L 889 624.5 L 889 627.5 L 884.5 632 L 816.5 693 L 786.5 714 Q 755.5 731.5 717.5 742 L 686.5 748 L 646.5 751 L 645.5 750 L 627.5 750 L 626.5 749 L 605.5 747 Q 581.3 742.7 561.5 734 Q 522.6 717.9 497 688.5 Q 481.9 670.1 472 646.5 L 461 617.5 L 447 573.5 L 443 565.5 L 443 562 L 457.5 560 Q 467.3 555.3 474 547.5 L 492.5 527 L 503.5 520 L 516.5 517 Z M 510 522 Q 494 527 486 539 L 484 542 Q 476 553 464 560 L 450 564 L 456 579 L 462 600 L 466 608 L 466 612 L 480 649 Q 489 670 504 687 L 530 710 L 562 728 L 575 732 L 577 734 L 591 738 L 595 738 L 598 740 Q 605 739 608 742 L 616 742 L 621 744 L 637 744 L 638 745 L 660 745 L 661 744 L 677 744 Q 682 741 691 742 L 696 740 L 702 740 L 706 738 L 719 736 L 722 734 L 726 734 L 746 726 L 749 726 L 751 724 L 754 724 L 779 712 L 801 698 Q 829 677 853 652 Q 855 653 854 650 L 874 634 L 877 630 L 876 628 L 866 628 Q 862 625 854 626 L 850 624 L 844 624 L 841 622 L 836 622 L 833 620 L 823 618 L 786 602 L 734 572 L 702 556 L 675 546 L 670 546 L 667 544 Q 660 545 658 542 L 650 542 L 643 540 L 611 540 L 604 542 L 586 542 Q 583 539 576 540 L 533 524 Q 526 525 524 522 L 510 522 Z " /><path fill="rgb(20,6,7)" stroke="rgb(20,6,7)" stroke-width="1" opacity="0.9764705882352941" d="M 518.5 556 Q 520.8 555.3 520 557.5 L 518.5 556 Z " /><path fill="rgb(20,6,7)" stroke="rgb(20,6,7)" stroke-width="1" opacity="0.9764705882352941" d="M 522 558 L 544 572 Q 542.9 574.7 545.5 574 Q 555.9 584.1 570.5 590 Q 576.2 589.3 578.5 592 L 590.5 592 L 591.5 593 L 613.5 593 L 614.5 592 L 625.5 592 Q 629.1 589.1 636.5 590 L 639.5 588 L 644.5 588 Q 646.2 585.2 651.5 586 L 672.5 578 L 677.5 578 L 677.5 579 L 671.5 580 L 668 582.5 L 669.5 584 L 674.5 584 L 677.5 586 L 688.5 588 L 718.5 600 L 721.5 600 L 723.5 602 L 750.5 610 L 765.5 612 L 768.5 614 L 775.5 614 L 779.5 616 L 788.5 616 L 792.5 618 L 800.5 618 Q 804.1 620.9 811.5 620 L 815.5 622 L 821.5 622 L 824.5 624 Q 831.5 623 834.5 626 L 846 626 Q 847.1 629.5 839.5 628 L 828.5 634 L 813.5 640 L 810.5 640 L 808.5 642 L 782.5 650 L 780.5 652 L 776.5 652 L 731.5 670 L 728.5 670 L 712.5 676 L 708.5 676 L 705.5 678 Q 698.8 677.3 695.5 680 L 688.5 680 L 682.5 682 L 644.5 682 L 638.5 680 L 630.5 680 L 625.5 678 L 619.5 678 L 615.5 676 L 600.5 674 L 597.5 672 L 585.5 670 L 582.5 668 L 573.5 666 L 571.5 664 L 568.5 664 L 540.5 649 L 516 630 L 494 601.5 L 494 599.5 L 481 578.5 L 480 574.5 L 474.5 568 L 468.5 572 Q 465.8 570.8 468 569.5 Q 467.3 567.3 469.5 568 L 477.5 564 L 497.5 561 L 502.5 562 L 503.5 561 L 515.5 561 L 518.5 562 Q 523 563 524 560.5 L 522 560 L 522 558 Z M 503 563 L 511 578 L 520 583 L 522 583 L 516 566 L 516 563 L 503 563 Z M 517 563 Q 519 578 528 589 Q 536 597 548 601 L 583 610 L 581 604 L 583 595 Q 582 604 585 610 L 587 611 L 614 617 L 638 620 L 639 621 L 647 621 L 648 622 L 668 622 L 673 621 L 690 612 Q 698 606 700 595 L 684 588 L 664 583 L 634 592 L 623 593 L 622 594 L 611 594 L 610 595 L 583 594 L 570 591 L 552 581 L 530 563 L 517 563 Z M 490 564 Q 489 570 493 571 Q 499 572 502 570 L 501 567 L 501 564 L 490 564 Z M 519 586 L 515 590 L 511 590 L 507 588 L 503 594 L 503 596 L 509 601 L 515 598 L 519 606 Q 528 605 532 599 L 527 590 Q 525 586 519 586 Z M 702 595 L 700 604 L 692 614 L 700 616 L 723 615 L 728 613 Q 732 611 730 605 L 702 595 Z M 502 599 L 501 602 L 502 608 L 509 616 L 510 614 Q 512 610 518 610 L 516 604 L 514 601 L 509 605 L 506 602 L 502 599 Z M 547 604 Q 541 608 540 616 L 541 626 L 545 628 Q 549 631 548 636 L 566 640 L 606 654 Q 613 653 617 656 L 625 656 L 632 658 L 648 658 L 649 659 L 675 660 L 676 658 L 681 654 L 703 646 L 710 644 L 715 644 L 719 642 L 724 642 L 727 640 L 732 640 L 735 638 L 740 638 L 743 636 L 747 636 L 763 630 L 766 630 L 779 624 L 786 619 L 779 618 L 776 616 L 768 616 L 767 615 L 764 615 L 756 620 L 751 621 L 739 620 L 732 615 L 724 618 L 697 618 L 694 616 L 689 616 L 680 622 L 665 626 L 653 626 L 645 624 L 636 624 Q 631 620 622 622 L 618 620 L 604 626 L 595 637 L 593 637 L 595 632 L 608 621 Q 611 620 608 618 L 604 619 L 599 616 L 593 616 L 590 614 L 576 612 L 573 610 L 568 610 L 565 608 L 560 608 L 557 606 L 547 604 Z M 734 606 L 732 613 L 735 615 L 743 618 L 756 617 L 760 614 L 734 606 Z M 516 612 L 514 613 L 511 617 L 510 618 L 521 628 L 521 627 Q 523 622 528 622 L 525 617 L 519 612 L 516 612 Z M 527 624 L 525 625 L 522 630 L 538 643 L 541 635 L 545 636 L 545 632 Q 538 625 527 624 Z M 784 630 Q 776 632 772 638 Q 775 642 774 650 L 809 638 L 804 631 L 800 631 L 794 635 L 792 633 Q 790 629 784 630 Z M 544 637 L 541 638 L 539 644 L 543 647 L 561 657 L 588 667 Q 590 666 588 665 Q 590 660 589 652 L 556 639 L 544 637 Z M 767 637 L 755 645 L 742 641 Q 733 648 727 659 Q 727 664 732 666 L 771 651 Q 773 643 770 640 L 767 637 Z M 591 652 L 590 657 Q 589 664 591 668 L 641 678 L 674 679 L 676 677 L 677 672 L 676 664 L 675 662 L 644 661 L 643 660 L 623 659 L 606 656 L 591 652 Z M 714 654 L 709 657 L 702 666 L 703 674 Q 717 672 728 667 L 724 661 Q 722 654 714 654 Z M 687 661 L 679 664 L 679 675 L 678 676 L 679 679 L 701 675 L 699 665 Q 697 659 687 661 Z " /><path fill="rgb(20,6,7)" stroke="rgb(20,6,7)" stroke-width="1" opacity="0.9764705882352941" d="M 679.5 577 L 689 578 Q 690.3 581.3 685.5 580 Q 684.1 577.4 679.5 578 L 679.5 577 Z " /><path fill="rgb(0,0,0)" stroke="rgb(0,0,0)" stroke-width="1" opacity="0" d="M 0 0 L 1000 0 L 1000 857 L 0 857 L 0 0 Z M 396 102 L 385 104 L 381 103 L 372 105 L 369 104 L 362 106 L 359 105 L 353 107 L 350 106 L 345 108 L 325 110 L 324 111 L 322 110 L 313 113 L 311 112 L 308 113 L 306 113 L 302 115 L 300 114 L 297 116 L 295 115 L 292 117 L 290 116 L 288 117 L 286 117 L 283 118 L 281 118 L 278 120 L 276 119 Q 274 122 273 120 L 271 121 L 269 121 L 267 122 L 265 122 L 263 124 L 257 125 L 255 125 L 237 132 L 235 132 L 221 139 L 219 139 L 210 144 Q 207 143 208 146 L 207 145 L 206 147 L 204 147 L 198 151 Q 195 150 196 153 L 193 153 L 193 155 L 189 158 Q 185 157 186 160 L 182 162 Q 183 164 180 163 L 177 167 L 173 169 L 170 173 L 157 185 L 153 191 L 151 192 L 149 196 L 147 197 Q 144 198 146 200 L 143 202 Q 144 205 142 204 Q 139 205 141 207 L 140 207 L 140 209 L 139 209 Q 136 210 138 212 L 136 212 L 135 215 Q 136 218 134 217 L 134 219 L 133 219 L 132 222 Q 133 224 131 223 L 130 226 Q 131 228 129 227 L 129 229 L 126 234 L 126 236 L 124 239 L 122 247 Q 119 246 120 249 L 120 253 L 118 255 L 119 257 L 117 260 L 117 264 L 115 267 L 116 269 L 114 273 L 115 275 L 113 278 L 114 281 L 112 287 L 113 289 L 111 298 L 112 301 L 111 302 L 111 317 L 111 319 L 113 328 L 112 331 L 114 337 L 113 340 L 114 344 L 114 346 L 116 350 L 115 352 L 117 356 L 116 358 Q 119 359 117 361 L 119 365 L 119 369 L 121 371 L 120 372 Q 119 374 122 373 L 122 376 Q 121 379 124 378 L 123 380 L 127 387 L 127 389 L 129 389 L 128 391 L 130 391 L 131 395 Q 130 397 133 396 L 132 398 L 135 399 L 136 402 Q 139 401 137 405 L 140 407 Q 139 410 142 409 L 144 414 L 157 426 Q 156 428 159 427 L 159 429 L 163 430 L 166 434 Q 169 433 168 436 L 174 439 Q 176 438 175 441 L 178 441 L 186 446 Q 188 445 187 448 L 189 447 L 189 449 L 192 449 Q 194 448 193 451 L 195 450 L 195 452 L 197 451 L 197 453 L 199 452 L 203 454 Q 204 457 206 455 L 213 459 L 222 461 Q 223 464 225 462 L 238 466 L 240 466 L 242 467 L 244 467 L 250 468 L 253 470 L 255 469 L 258 471 L 262 470 L 267 472 L 269 471 L 277 472 L 280 473 L 282 472 Q 287 471 289 473 L 305 473 L 306 472 Q 310 471 312 473 L 320 472 L 322 472 L 342 469 L 341 468 L 343 467 L 343 466 L 331 467 L 330 468 L 286 468 L 285 467 L 275 467 L 274 466 L 256 464 L 254 464 L 251 463 L 249 463 L 247 462 L 245 462 L 243 460 L 238 459 L 234 459 L 232 457 L 225 455 L 223 456 Q 224 453 221 454 L 215 453 Q 216 450 213 451 L 211 451 L 210 450 L 209 450 L 194 442 Q 192 439 190 441 Q 191 438 189 439 Q 187 435 186 438 L 185 436 L 181 434 L 178 431 L 177 432 L 177 431 Q 167 425 160 416 Q 157 417 158 415 L 152 409 L 152 408 L 148 404 L 148 403 L 145 400 L 145 399 L 143 397 Q 144 395 141 394 Q 142 391 140 392 L 140 391 L 135 383 L 130 371 L 129 365 Q 125 363 128 362 L 125 351 L 125 344 L 123 335 L 123 333 Q 125 326 122 325 L 122 298 L 123 297 Q 124 292 122 291 L 126 273 L 125 271 L 130 258 L 129 256 L 131 254 L 132 249 L 132 247 L 135 241 L 135 239 L 137 238 L 136 237 L 138 236 L 143 225 Q 142 221 145 222 L 145 220 Q 147 221 146 219 Q 149 217 147 216 L 149 215 Q 151 214 149 213 L 151 212 Q 153 211 151 210 L 153 209 L 154 205 L 157 204 Q 156 200 159 201 L 161 197 L 164 195 L 178 180 L 188 172 Q 190 173 189 170 L 193 169 Q 192 166 196 167 L 196 165 L 199 165 L 199 163 L 202 163 L 202 161 L 205 161 L 205 160 L 207 160 L 207 158 L 211 157 Q 213 158 212 156 L 214 156 L 214 155 L 216 155 L 216 153 L 224 150 L 226 150 L 235 145 L 237 145 L 240 143 L 244 141 L 245 142 L 247 140 L 248 141 Q 249 138 254 139 L 262 135 L 264 136 Q 265 132 267 135 Q 269 136 268 133 L 271 134 L 274 132 Q 275 134 277 131 L 279 132 L 281 131 L 283 131 L 286 130 L 288 130 L 290 129 L 292 129 L 295 128 L 297 128 L 300 127 L 302 127 L 305 126 L 307 126 Q 310 123 317 124 L 319 124 L 323 123 L 325 123 L 329 122 L 331 122 L 336 121 L 338 121 L 343 120 L 345 120 L 351 118 L 353 119 L 360 117 L 363 118 L 369 116 L 374 117 L 381 115 L 386 116 L 399 115 L 400 114 Q 404 113 406 115 L 433 115 L 434 114 L 450 115 L 451 116 L 453 115 L 462 117 L 465 116 L 471 117 L 473 117 L 478 118 L 480 118 L 484 120 L 486 119 L 489 120 L 491 120 L 494 121 L 496 121 L 499 123 L 501 122 L 503 123 L 505 123 L 507 124 L 509 124 L 511 125 L 513 125 L 515 127 L 529 131 L 533 133 L 534 132 L 534 134 L 536 133 L 539 135 L 541 135 L 541 137 L 544 137 L 557 144 Q 560 143 559 146 L 561 146 Q 560 149 564 147 L 564 149 L 575 156 Q 578 155 577 158 Q 579 162 581 159 L 588 167 Q 590 166 589 169 L 591 169 L 593 172 Q 595 171 594 174 L 596 174 L 596 176 L 599 177 L 601 182 L 604 183 L 605 186 Q 607 185 606 189 L 609 190 Q 607 192 610 194 Q 609 196 612 195 L 612 198 L 614 198 L 613 200 L 615 200 L 615 202 Q 617 201 616 204 L 617 206 L 618 206 L 618 210 L 620 210 L 619 212 L 621 212 L 620 214 L 623 219 L 623 221 L 625 226 Q 628 227 626 229 Q 625 231 628 230 L 628 233 L 628 235 L 630 240 L 630 242 L 633 251 L 635 264 L 635 266 L 637 275 L 636 277 L 636 297 L 637 298 L 635 305 L 636 309 L 633 317 L 634 320 L 630 330 L 631 332 L 630 335 Q 626 336 629 338 L 625 344 L 618 361 L 604 381 L 601 384 L 602 385 L 583 401 Q 580 402 582 404 L 581 403 L 579 404 Q 576 405 578 407 L 577 406 Q 564 417 548 423 Q 545 422 546 425 L 545 424 L 538 426 L 538 428 L 537 427 Q 534 426 535 429 L 534 428 Q 531 427 532 430 L 531 429 Q 528 428 529 431 L 528 430 L 472 442 L 470 442 L 458 445 L 456 445 L 453 447 L 451 446 Q 449 449 448 447 L 442 449 L 437 447 Q 438 442 436 441 Q 429 440 426 443 L 425 446 L 427 454 L 426 457 L 425 456 L 424 458 L 423 457 L 421 460 L 420 459 L 418 462 L 414 464 L 410 468 L 411 469 L 409 470 Q 406 471 408 473 L 407 473 L 404 479 L 404 481 L 402 481 L 401 486 Q 402 488 396 487 L 389 494 Q 388 505 380 511 Q 379 515 381 517 L 381 518 L 380 517 L 372 510 L 369 510 L 369 509 L 358 497 Q 355 498 356 495 L 354 493 L 354 492 L 352 490 L 352 489 L 347 481 L 344 471 L 342 472 Q 345 474 344 480 L 344 482 L 346 485 L 346 487 L 349 492 Q 348 494 351 493 L 351 496 L 353 496 L 353 499 L 355 499 L 356 503 L 359 504 L 363 510 L 366 511 L 368 515 L 376 519 L 377 522 Q 378 524 380 522 L 381 525 L 383 524 L 383 526 L 387 527 Q 389 526 388 529 L 391 529 Q 393 528 392 531 L 394 530 Q 402 535 414 538 L 416 538 L 415 536 L 415 534 L 413 529 L 413 527 L 412 523 Q 408 521 411 520 L 410 517 L 410 515 L 407 501 L 409 492 L 408 490 L 409 488 L 411 482 Q 413 483 412 481 L 413 478 Q 416 479 414 475 L 416 475 L 418 471 L 422 469 Q 421 466 425 467 L 425 465 L 440 459 L 444 457 L 445 458 L 447 456 L 448 457 Q 449 454 454 455 L 456 455 L 464 452 L 466 453 L 469 451 L 471 452 L 475 450 L 477 451 L 480 449 Q 484 450 486 448 L 488 449 L 493 447 L 495 448 L 498 446 L 500 447 L 509 444 L 511 445 L 514 443 L 516 444 L 523 441 L 525 442 L 527 441 L 529 441 Q 529 438 534 439 L 536 439 L 538 437 L 548 434 L 550 434 L 553 432 L 555 432 L 566 426 Q 568 427 567 425 L 569 425 L 569 423 L 572 422 L 574 422 Q 573 419 576 420 Q 577 417 579 419 Q 578 415 582 417 L 584 414 Q 587 415 586 413 L 590 410 Q 592 411 591 409 L 596 406 L 599 402 L 609 393 Q 613 392 612 388 L 615 386 L 616 382 L 619 381 Q 618 377 621 378 L 621 375 L 623 375 L 623 372 L 625 372 L 626 369 Q 625 366 628 367 L 627 366 L 629 365 L 631 361 Q 630 357 633 358 L 632 357 L 635 352 L 635 350 L 637 347 L 639 343 L 638 342 L 640 338 L 640 336 L 641 333 Q 644 331 642 330 L 643 328 L 643 326 L 644 324 L 644 322 L 645 319 L 645 317 L 646 312 L 646 310 L 648 306 L 647 302 L 648 298 L 648 275 L 647 274 L 648 270 Q 649 264 646 262 L 647 260 L 645 256 L 646 254 L 645 251 L 645 249 L 644 243 L 642 241 L 643 239 L 640 234 L 641 233 L 637 221 Q 633 219 636 218 L 635 216 Q 631 214 634 213 L 632 209 Q 633 206 631 207 L 631 206 L 624 192 L 622 190 L 622 189 L 621 187 L 619 185 L 618 182 Q 615 183 616 180 L 614 178 L 613 175 Q 610 176 611 173 L 607 169 Q 604 168 606 167 L 596 156 Q 593 157 594 154 L 592 154 L 590 152 L 587 148 L 586 149 L 583 145 Q 579 146 580 144 Q 579 141 578 143 L 577 142 Q 576 139 575 141 L 574 140 Q 573 137 572 139 L 571 138 L 568 137 Q 569 134 567 135 Q 565 131 564 134 L 563 133 L 562 133 L 561 132 L 560 132 L 559 130 L 543 123 L 541 123 L 538 121 L 536 121 L 532 118 L 519 114 L 515 114 L 513 113 L 511 113 L 509 112 L 507 112 L 504 110 L 502 111 L 500 110 L 498 110 L 495 109 L 493 109 L 483 106 L 481 107 L 477 105 L 475 106 L 458 104 L 456 104 L 446 103 L 442 103 Q 436 105 435 102 L 405 102 L 404 103 L 396 102 Z M 513 517 L 510 518 L 508 518 L 499 523 Q 495 522 496 525 Q 496 528 492 527 L 490 530 L 483 536 Q 484 538 481 537 L 480 541 Q 477 540 478 543 L 476 543 L 474 548 L 465 555 Q 466 558 462 556 L 462 558 L 461 557 L 460 559 L 459 558 L 458 560 L 457 559 Q 454 558 455 561 L 453 560 L 450 562 L 447 561 L 445 561 L 442 565 L 443 567 Q 446 568 444 570 L 446 573 L 448 577 L 447 578 Q 446 580 449 579 L 448 581 L 451 587 L 453 591 L 452 592 L 454 594 L 463 623 L 465 627 L 464 628 L 466 630 L 469 639 L 469 641 L 475 653 L 476 655 Q 478 654 477 657 L 478 659 Q 480 658 479 661 L 479 663 L 481 663 L 480 665 L 482 665 Q 481 669 485 671 L 485 673 Q 488 672 487 675 Q 490 676 488 678 L 491 680 Q 490 683 493 682 L 498 691 L 500 691 L 509 701 Q 508 703 511 702 L 511 704 L 515 705 L 517 709 L 525 714 Q 524 717 528 715 L 528 717 L 531 717 L 538 722 Q 540 721 539 724 L 554 730 Q 555 733 557 731 L 557 733 L 559 732 Q 569 738 584 741 Q 585 744 587 742 L 593 744 L 595 744 L 597 745 L 599 745 L 602 746 L 604 746 L 614 748 L 616 748 L 622 749 L 624 749 L 635 750 L 637 750 L 646 750 L 647 751 L 652 750 L 660 750 L 661 751 L 671 749 L 675 750 L 680 748 L 694 747 L 700 745 L 702 746 L 705 745 L 707 745 L 714 742 L 716 743 L 722 740 L 725 740 L 727 740 L 729 738 L 740 735 L 744 733 L 745 734 L 753 730 L 755 730 L 787 714 Q 789 715 788 712 L 791 711 Q 794 712 793 709 L 796 709 L 796 707 L 804 702 Q 807 703 806 700 L 823 687 L 825 687 L 826 685 L 832 680 Q 834 681 833 678 L 835 678 L 835 677 L 845 669 Q 844 666 847 667 L 848 665 Q 852 658 860 655 L 863 651 L 872 644 L 874 641 L 885 632 L 890 625 Q 889 622 884 623 L 882 623 L 874 622 L 872 622 L 855 619 L 853 619 L 850 618 L 848 618 L 834 614 L 832 614 L 814 608 L 804 603 L 802 603 L 777 590 Q 774 591 775 588 L 768 585 Q 765 586 766 583 L 759 580 Q 756 581 757 578 L 748 574 Q 745 575 746 572 L 739 569 Q 736 570 737 568 L 736 568 L 735 566 L 714 556 L 712 556 L 701 550 L 699 550 L 696 548 L 694 548 Q 693 545 689 546 L 681 542 L 680 543 Q 675 539 667 539 L 665 539 L 662 537 L 660 538 L 656 537 L 654 537 L 649 535 L 647 536 L 638 535 L 634 535 L 619 535 L 617 534 L 615 534 L 606 536 L 603 535 L 598 536 L 587 536 L 586 535 L 583 536 L 578 534 Q 576 537 575 533 L 573 534 L 568 531 L 567 532 L 564 530 L 560 528 L 559 529 L 556 528 Q 554 524 553 527 Q 543 521 530 519 L 528 519 L 524 518 L 522 518 L 519 517 L 516 518 L 513 517 Z " /><path fill="rgb(0,0,0)" stroke="rgb(0,0,0)" stroke-width="1" opacity="0" d="M 401.5 518 L 404 518.5 L 403 521 Q 405.7 519.9 405 522.5 L 405 526.5 Q 405.8 528.8 403.5 528 L 402.5 529 Q 400.8 525.9 399 527.5 L 398.5 526 Q 397 528.5 395.5 525 L 391 522.5 L 392.5 522 L 396.5 523 L 401.5 518 Z " /><path fill="rgb(233,230,230)" stroke="rgb(233,230,230)" stroke-width="1" opacity="0.8470588235294118" d="M 405.5 114 L 433 114.5 L 405.5 115 L 405.5 114 Z " /><path fill="rgb(233,230,230)" stroke="rgb(233,230,230)" stroke-width="1" opacity="0.8470588235294118" d="M 385.5 115 L 389 115.5 L 385.5 116 L 385.5 115 Z " /><path fill="rgb(233,230,230)" stroke="rgb(233,230,230)" stroke-width="1" opacity="0.8470588235294118" d="M 461.5 116 L 464 116.5 L 461.5 117 L 461.5 116 Z " /><path fill="rgb(233,230,230)" stroke="rgb(233,230,230)" stroke-width="1" opacity="0.8470588235294118" d="M 352.5 118 L 355 118.5 L 352.5 119 L 352.5 118 Z " /><path fill="rgb(233,230,230)" stroke="rgb(233,230,230)" stroke-width="1" opacity="0.8470588235294118" d="M 564.5 133 L 565.5 135 L 564.5 133 Z " /><path fill="rgb(233,230,230)" stroke="rgb(233,230,230)" stroke-width="1" opacity="0.8470588235294118" d="M 569.5 136 L 570.5 138 L 569.5 136 Z " /><path fill="rgb(233,230,230)" stroke="rgb(233,230,230)" stroke-width="1" opacity="0.8470588235294118" d="M 572.5 138 L 573.5 140 L 572.5 138 Z " /><path fill="rgb(233,230,230)" stroke="rgb(233,230,230)" stroke-width="1" opacity="0.8470588235294118" d="M 575.5 140 L 576.5 142 L 575.5 140 Z " /><path fill="rgb(233,230,230)" stroke="rgb(233,230,230)" stroke-width="1" opacity="0.8470588235294118" d="M 578.5 142 L 579.5 144 L 578.5 142 Z " /><path fill="rgb(233,230,230)" stroke="rgb(233,230,230)" stroke-width="1" opacity="0.8470588235294118" d="M 582.5 145 L 584.5 148 L 582.5 145 Z " /><path fill="rgb(233,230,230)" stroke="rgb(233,230,230)" stroke-width="1" opacity="0.8470588235294118" d="M 586.5 148 L 589.5 152 L 586.5 148 Z " /><path fill="rgb(233,230,230)" stroke="rgb(233,230,230)" stroke-width="1" opacity="0.8470588235294118" d="M 566.5 149 L 567.5 151 L 566.5 149 Z " /><path fill="rgb(233,230,230)" stroke="rgb(233,230,230)" stroke-width="1" opacity="0.8470588235294118" d="M 569.5 151 L 570.5 153 L 569.5 151 Z " /><path fill="rgb(233,230,230)" stroke="rgb(233,230,230)" stroke-width="1" opacity="0.8470588235294118" d="M 572.5 153 L 574.5 156 L 572.5 153 Z " /><path fill="rgb(233,230,230)" stroke="rgb(233,230,230)" stroke-width="1" opacity="0.8470588235294118" d="M 595.5 156 L 605.5 167 L 595.5 156 Z " /><path fill="rgb(233,230,230)" stroke="rgb(233,230,230)" stroke-width="1" opacity="0.8470588235294118" d="M 577.5 157 L 579.5 160 L 577.5 157 Z " /><path fill="rgb(233,230,230)" stroke="rgb(233,230,230)" stroke-width="1" opacity="0.8470588235294118" d="M 183.5 160 L 182.5 162 L 183.5 160 Z " /><path fill="rgb(233,230,230)" stroke="rgb(233,230,230)" stroke-width="1" opacity="0.8470588235294118" d="M 582.5 161 L 587.5 167 L 582.5 161 Z " /><path fill="rgb(233,230,230)" stroke="rgb(233,230,230)" stroke-width="1" opacity="0.8470588235294118" d="M 179.5 163 L 177.5 166 L 179.5 163 Z " /><path fill="rgb(233,230,230)" stroke="rgb(233,230,230)" stroke-width="1" opacity="0.8470588235294118" d="M 192.5 168 L 191.5 170 L 192.5 168 Z " /><path fill="rgb(233,230,230)" stroke="rgb(233,230,230)" stroke-width="1" opacity="0.8470588235294118" d="M 172.5 169 L 170.5 172 L 172.5 169 Z " /><path fill="rgb(233,230,230)" stroke="rgb(233,230,230)" stroke-width="1" opacity="0.8470588235294118" d="M 607.5 169 L 610.5 173 L 607.5 169 Z " /><path fill="rgb(233,230,230)" stroke="rgb(233,230,230)" stroke-width="1" opacity="0.8470588235294118" d="M 591.5 170 L 592.5 172 L 591.5 170 Z " /><path fill="rgb(233,230,230)" stroke="rgb(233,230,230)" stroke-width="1" opacity="0.8470588235294118" d="M 184.5 174 L 183.5 176 L 184.5 174 Z " /><path fill="rgb(233,230,230)" stroke="rgb(233,230,230)" stroke-width="1" opacity="0.8470588235294118" d="M 596.5 175 L 597.5 177 L 596.5 175 Z " /><path fill="rgb(233,230,230)" stroke="rgb(233,230,230)" stroke-width="1" opacity="0.8470588235294118" d="M 612.5 175 L 613.5 177 L 612.5 175 Z " /><path fill="rgb(233,230,230)" stroke="rgb(233,230,230)" stroke-width="1" opacity="0.8470588235294118" d="M 614.5 178 L 615.5 180 L 614.5 178 Z " /><path fill="rgb(233,230,230)" stroke="rgb(233,230,230)" stroke-width="1" opacity="0.8470588235294118" d="M 177.5 180 L 163.5 195 L 177.5 180 Z " /><path fill="rgb(233,230,230)" stroke="rgb(233,230,230)" stroke-width="1" opacity="0.8470588235294118" d="M 601.5 181 L 602.5 183 L 601.5 181 Z " /><path fill="rgb(233,230,230)" stroke="rgb(233,230,230)" stroke-width="1" opacity="0.8470588235294118" d="M 617.5 182 L 618.5 184 L 617.5 182 Z " /><path fill="rgb(233,230,230)" stroke="rgb(233,230,230)" stroke-width="1" opacity="0.8470588235294118" d="M 603.5 184 L 604.5 186 L 603.5 184 Z " /><path fill="rgb(233,230,230)" stroke="rgb(233,230,230)" stroke-width="1" opacity="0.8470588235294118" d="M 156.5 185 L 154.5 188 L 156.5 185 Z " /><path fill="rgb(233,230,230)" stroke="rgb(233,230,230)" stroke-width="1" opacity="0.8470588235294118" d="M 619.5 185 L 622 188.5 L 620 187.5 L 619.5 185 Z " /><path fill="rgb(233,230,230)" stroke="rgb(233,230,230)" stroke-width="1" opacity="0.8470588235294118" d="M 606.5 188 L 607.5 190 L 606.5 188 Z " /><path fill="rgb(233,230,230)" stroke="rgb(233,230,230)" stroke-width="1" opacity="0.8470588235294118" d="M 622.5 190 L 625 193.5 L 623 192.5 L 622.5 190 Z " /><path fill="rgb(233,230,230)" stroke="rgb(233,230,230)" stroke-width="1" opacity="0.8470588235294118" d="M 608.5 191 L 609.5 193 L 608.5 191 Z " /><path fill="rgb(233,230,230)" stroke="rgb(233,230,230)" stroke-width="1" opacity="0.8470588235294118" d="M 150.5 192 L 149.5 194 L 150.5 192 Z " /><path fill="rgb(233,230,230)" stroke="rgb(233,230,230)" stroke-width="1" opacity="0.8470588235294118" d="M 146.5 197 L 145.5 199 L 146.5 197 Z " /><path fill="rgb(233,230,230)" stroke="rgb(233,230,230)" stroke-width="1" opacity="0.8470588235294118" d="M 159.5 199 L 158.5 201 L 159.5 199 Z " /><path fill="rgb(233,230,230)" stroke="rgb(233,230,230)" stroke-width="1" opacity="0.8470588235294118" d="M 144.5 200 L 143.5 202 L 144.5 200 Z " /><path fill="rgb(233,230,230)" stroke="rgb(233,230,230)" stroke-width="1" opacity="0.8470588235294118" d="M 156.5 203 L 155.5 205 L 156.5 203 Z " /><path fill="rgb(233,230,230)" stroke="rgb(233,230,230)" stroke-width="1" opacity="0.8470588235294118" d="M 141.5 204 L 140.5 206 L 141.5 204 Z " /><path fill="rgb(233,230,230)" stroke="rgb(233,230,230)" stroke-width="1" opacity="0.8470588235294118" d="M 631.5 207 L 633 210.5 L 632 210.5 L 631.5 207 Z " /><path fill="rgb(233,230,230)" stroke="rgb(233,230,230)" stroke-width="1" opacity="0.8470588235294118" d="M 138.5 209 L 137.5 211 L 138.5 209 Z " /><path fill="rgb(233,230,230)" stroke="rgb(233,230,230)" stroke-width="1" opacity="0.8470588235294118" d="M 151.5 210 L 150.5 212 L 151.5 210 Z " /><path fill="rgb(233,230,230)" stroke="rgb(233,230,230)" stroke-width="1" opacity="0.8470588235294118" d="M 149.5 213 L 148.5 215 L 149.5 213 Z " /><path fill="rgb(233,230,230)" stroke="rgb(233,230,230)" stroke-width="1" opacity="0.8470588235294118" d="M 147.5 216 L 146.5 218 L 147.5 216 Z " /><path fill="rgb(233,230,230)" stroke="rgb(233,230,230)" stroke-width="1" opacity="0.8470588235294118" d="M 643.5 242 L 644 244.5 L 643 244.5 L 643.5 242 Z " /><path fill="rgb(233,230,230)" stroke="rgb(233,230,230)" stroke-width="1" opacity="0.8470588235294118" d="M 631.5 244 L 632 246.5 L 631 246.5 L 631.5 244 Z " /><path fill="rgb(233,230,230)" stroke="rgb(233,230,230)" stroke-width="1" opacity="0.8470588235294118" d="M 633.5 253 L 634 255.5 L 633 255.5 L 633.5 253 Z " /><path fill="rgb(233,230,230)" stroke="rgb(233,230,230)" stroke-width="1" opacity="0.8470588235294118" d="M 127.5 262 L 128 264.5 L 127 264.5 L 127.5 262 Z " /><path fill="rgb(233,230,230)" stroke="rgb(233,230,230)" stroke-width="1" opacity="0.8470588235294118" d="M 635.5 265 L 636 268.5 L 635 268.5 L 635.5 265 Z " /><path fill="rgb(233,230,230)" stroke="rgb(233,230,230)" stroke-width="1" opacity="0.8470588235294118" d="M 647.5 265 L 648 269.5 L 647 269.5 L 647.5 265 Z " /><path fill="rgb(233,230,230)" stroke="rgb(233,230,230)" stroke-width="1" opacity="0.8470588235294118" d="M 124.5 276 L 125 278.5 L 124 278.5 L 124.5 276 Z " /><path fill="rgb(233,230,230)" stroke="rgb(233,230,230)" stroke-width="1" opacity="0.8470588235294118" d="M 636.5 276 L 637 296.5 L 636 296.5 L 636.5 276 Z " /><path fill="rgb(233,230,230)" stroke="rgb(233,230,230)" stroke-width="1" opacity="0.8470588235294118" d="M 113.5 277 L 114 279.5 L 113 279.5 L 113.5 277 Z " /><path fill="rgb(233,230,230)" stroke="rgb(233,230,230)" stroke-width="1" opacity="0.8470588235294118" d="M 122.5 291 L 123 296.5 L 122 296.5 L 122.5 291 Z " /><path fill="rgb(233,230,230)" stroke="rgb(233,230,230)" stroke-width="1" opacity="0.8470588235294118" d="M 111.5 297 L 112 299.5 L 111 299.5 L 111.5 297 Z " /><path fill="rgb(233,230,230)" stroke="rgb(233,230,230)" stroke-width="1" opacity="0.8470588235294118" d="M 111.5 301 L 112 316.5 L 111 316.5 L 111.5 301 Z " /><path fill="rgb(233,230,230)" stroke="rgb(233,230,230)" stroke-width="1" opacity="0.8470588235294118" d="M 647.5 302 L 648 305.5 L 647 305.5 L 647.5 302 Z " /><path fill="rgb(233,230,230)" stroke="rgb(233,230,230)" stroke-width="1" opacity="0.8470588235294118" d="M 121.5 304 L 122 317.5 L 121 317.5 L 121.5 304 Z " /><path fill="rgb(233,230,230)" stroke="rgb(233,230,230)" stroke-width="1" opacity="0.8470588235294118" d="M 635.5 304 L 636 307.5 L 635 307.5 L 635.5 304 Z " /><path fill="rgb(233,230,230)" stroke="rgb(233,230,230)" stroke-width="1" opacity="0.8470588235294118" d="M 633.5 316 L 634 318.5 L 633 318.5 L 633.5 316 Z " /><path fill="rgb(233,230,230)" stroke="rgb(233,230,230)" stroke-width="1" opacity="0.8470588235294118" d="M 111.5 318 L 112 321.5 L 111 321.5 L 111.5 318 Z " /><path fill="rgb(233,230,230)" stroke="rgb(233,230,230)" stroke-width="1" opacity="0.8470588235294118" d="M 122.5 325 L 123 332.5 L 122 332.5 L 122.5 325 Z " /><path fill="rgb(233,230,230)" stroke="rgb(233,230,230)" stroke-width="1" opacity="0.8470588235294118" d="M 631.5 325 L 632 327.5 L 631 327.5 L 631.5 325 Z " /><path fill="rgb(233,230,230)" stroke="rgb(233,230,230)" stroke-width="1" opacity="0.8470588235294118" d="M 112.5 330 L 113 332.5 L 112 332.5 L 112.5 330 Z " /><path fill="rgb(233,230,230)" stroke="rgb(233,230,230)" stroke-width="1" opacity="0.8470588235294118" d="M 123.5 338 L 124 341.5 L 123 341.5 L 123.5 338 Z " /><path fill="rgb(233,230,230)" stroke="rgb(233,230,230)" stroke-width="1" opacity="0.8470588235294118" d="M 113.5 339 L 114 341.5 L 113 341.5 L 113.5 339 Z " /><path fill="rgb(233,230,230)" stroke="rgb(233,230,230)" stroke-width="1" opacity="0.8470588235294118" d="M 626.5 341 L 627 342.5 L 625.5 345 L 625 343.5 L 626.5 341 Z " /><path fill="rgb(233,230,230)" stroke="rgb(233,230,230)" stroke-width="1" opacity="0.8470588235294118" d="M 124.5 343 L 125 347.5 L 124 347.5 L 124.5 343 Z " /><path fill="rgb(233,230,230)" stroke="rgb(233,230,230)" stroke-width="1" opacity="0.8470588235294118" d="M 624.5 346 L 625 347.5 L 623.5 350 L 623 348.5 L 624.5 346 Z " /><path fill="rgb(233,230,230)" stroke="rgb(233,230,230)" stroke-width="1" opacity="0.8470588235294118" d="M 125.5 351 L 126 353.5 L 125 353.5 L 125.5 351 Z " /><path fill="rgb(233,230,230)" stroke="rgb(233,230,230)" stroke-width="1" opacity="0.8470588235294118" d="M 622.5 351 L 622 352.5 L 621.5 354 L 621 352.5 L 622.5 351 Z " /><path fill="rgb(233,230,230)" stroke="rgb(233,230,230)" stroke-width="1" opacity="0.8470588235294118" d="M 620.5 355 L 620 356.5 L 618.5 360 L 618 358.5 L 620.5 355 Z " /><path fill="rgb(233,230,230)" stroke="rgb(233,230,230)" stroke-width="1" opacity="0.8470588235294118" d="M 617.5 361 L 617 362.5 L 613.5 368 L 614 366.5 L 617.5 361 Z " /><path fill="rgb(233,230,230)" stroke="rgb(233,230,230)" stroke-width="1" opacity="0.8470588235294118" d="M 612.5 369 L 611 371.5 L 601.5 384 L 604 380.5 L 612.5 369 Z " /><path fill="rgb(233,230,230)" stroke="rgb(233,230,230)" stroke-width="1" opacity="0.8470588235294118" d="M 131.5 373 L 133 376.5 L 132 376.5 L 131.5 373 Z " /><path fill="rgb(233,230,230)" stroke="rgb(233,230,230)" stroke-width="1" opacity="0.8470588235294118" d="M 133.5 378 L 135 381.5 L 134 381.5 L 133.5 378 Z " /><path fill="rgb(233,230,230)" stroke="rgb(233,230,230)" stroke-width="1" opacity="0.8470588235294118" d="M 618.5 380 L 617.5 382 L 618.5 380 Z " /><path fill="rgb(233,230,230)" stroke="rgb(233,230,230)" stroke-width="1" opacity="0.8470588235294118" d="M 615.5 384 L 614.5 386 L 615.5 384 Z " /><path fill="rgb(233,230,230)" stroke="rgb(233,230,230)" stroke-width="1" opacity="0.8470588235294118" d="M 599.5 386 L 588.5 398 L 566.5 414 L 567.5 412 Q 585.7 401.2 599.5 386 Z " /><path fill="rgb(233,230,230)" stroke="rgb(233,230,230)" stroke-width="1" opacity="0.8470588235294118" d="M 138.5 389 L 139.5 391 L 138.5 389 Z " /><path fill="rgb(233,230,230)" stroke="rgb(233,230,230)" stroke-width="1" opacity="0.8470588235294118" d="M 611.5 389 L 608.5 393 L 611.5 389 Z " /><path fill="rgb(233,230,230)" stroke="rgb(233,230,230)" stroke-width="1" opacity="0.8470588235294118" d="M 141.5 394 L 142.5 396 L 141.5 394 Z " /><path fill="rgb(233,230,230)" stroke="rgb(233,230,230)" stroke-width="1" opacity="0.8470588235294118" d="M 132.5 397 L 133.5 399 L 132.5 397 Z " /><path fill="rgb(233,230,230)" stroke="rgb(233,230,230)" stroke-width="1" opacity="0.8470588235294118" d="M 143.5 397 L 144.5 399 L 143.5 397 Z " /><path fill="rgb(233,230,230)" stroke="rgb(233,230,230)" stroke-width="1" opacity="0.8470588235294118" d="M 134.5 400 L 135.5 402 L 134.5 400 Z " /><path fill="rgb(233,230,230)" stroke="rgb(233,230,230)" stroke-width="1" opacity="0.8470588235294118" d="M 145.5 400 L 147.5 403 L 145.5 400 Z " /><path fill="rgb(233,230,230)" stroke="rgb(233,230,230)" stroke-width="1" opacity="0.8470588235294118" d="M 598.5 402 L 595.5 406 L 598.5 402 Z " /><path fill="rgb(233,230,230)" stroke="rgb(233,230,230)" stroke-width="1" opacity="0.8470588235294118" d="M 148.5 404 L 151.5 408 L 148.5 404 Z " /><path fill="rgb(233,230,230)" stroke="rgb(233,230,230)" stroke-width="1" opacity="0.8470588235294118" d="M 152.5 409 L 157.5 415 L 152.5 409 Z " /><path fill="rgb(233,230,230)" stroke="rgb(233,230,230)" stroke-width="1" opacity="0.8470588235294118" d="M 144.5 413 L 145.5 415 L 144.5 413 Z " /><path fill="rgb(233,230,230)" stroke="rgb(233,230,230)" stroke-width="1" opacity="0.8470588235294118" d="M 564.5 414 L 563.5 416 L 561.5 417 L 562.5 415 L 564.5 414 Z " /><path fill="rgb(233,230,230)" stroke="rgb(233,230,230)" stroke-width="1" opacity="0.8470588235294118" d="M 159.5 416 L 180 433.5 L 176.5 431 Q 165.4 425.2 159.5 416 Z " /><path fill="rgb(233,230,230)" stroke="rgb(233,230,230)" stroke-width="1" opacity="0.8470588235294118" d="M 550.5 421 L 552 421.5 L 546.5 424 L 546.5 423 L 550.5 421 Z " /><path fill="rgb(233,230,230)" stroke="rgb(233,230,230)" stroke-width="1" opacity="0.8470588235294118" d="M 543.5 424 L 545 424.5 L 535.5 428 L 535.5 427 L 543.5 424 Z " /><path fill="rgb(233,230,230)" stroke="rgb(233,230,230)" stroke-width="1" opacity="0.8470588235294118" d="M 525.5 430 L 528 430.5 L 522.5 432 L 522.5 431 L 525.5 430 Z " /><path fill="rgb(233,230,230)" stroke="rgb(233,230,230)" stroke-width="1" opacity="0.8470588235294118" d="M 164.5 432 L 165.5 434 L 164.5 432 Z " /><path fill="rgb(233,230,230)" stroke="rgb(233,230,230)" stroke-width="1" opacity="0.8470588235294118" d="M 518.5 432 L 521 432.5 L 518.5 433 L 518.5 432 Z " /><path fill="rgb(233,230,230)" stroke="rgb(233,230,230)" stroke-width="1" opacity="0.8470588235294118" d="M 513.5 433 L 517 433.5 L 513.5 434 L 513.5 433 Z " /><path fill="rgb(233,230,230)" stroke="rgb(233,230,230)" stroke-width="1" opacity="0.8470588235294118" d="M 181.5 434 L 182.5 436 L 181.5 434 Z " /><path fill="rgb(233,230,230)" stroke="rgb(233,230,230)" stroke-width="1" opacity="0.8470588235294118" d="M 508.5 434 L 512 434.5 L 504.5 436 L 504.5 435 L 508.5 434 Z " /><path fill="rgb(233,230,230)" stroke="rgb(233,230,230)" stroke-width="1" opacity="0.8470588235294118" d="M 168.5 435 L 169.5 437 L 168.5 435 Z " /><path fill="rgb(233,230,230)" stroke="rgb(233,230,230)" stroke-width="1" opacity="0.8470588235294118" d="M 499.5 436 L 503 436.5 L 499.5 437 L 499.5 436 Z " /><path fill="rgb(233,230,230)" stroke="rgb(233,230,230)" stroke-width="1" opacity="0.8470588235294118" d="M 186.5 437 L 187.5 439 L 186.5 437 Z " /><path fill="rgb(233,230,230)" stroke="rgb(233,230,230)" stroke-width="1" opacity="0.8470588235294118" d="M 494.5 437 L 498 437.5 L 494.5 438 L 494.5 437 Z " /><path fill="rgb(233,230,230)" stroke="rgb(233,230,230)" stroke-width="1" opacity="0.8470588235294118" d="M 489.5 438 L 492 438.5 L 489.5 439 L 489.5 438 Z " /><path fill="rgb(233,230,230)" stroke="rgb(233,230,230)" stroke-width="1" opacity="0.8470588235294118" d="M 484.5 439 L 487 439.5 L 484.5 440 L 484.5 439 Z " /><path fill="rgb(233,230,230)" stroke="rgb(233,230,230)" stroke-width="1" opacity="0.8470588235294118" d="M 191.5 440 L 192.5 442 L 191.5 440 Z " /><path fill="rgb(233,230,230)" stroke="rgb(233,230,230)" stroke-width="1" opacity="0.8470588235294118" d="M 478.5 440 L 482 440.5 L 478.5 441 L 478.5 440 Z " /><path fill="rgb(233,230,230)" stroke="rgb(233,230,230)" stroke-width="1" opacity="0.8470588235294118" d="M 430.5 441 Q 435.8 439.8 437 442.5 Q 435.1 447.9 438.5 447 L 441.5 449 L 444.5 448 L 444.5 449 Q 433.8 450.8 426.5 456 L 427 454.5 L 425 445.5 L 426 443 L 430.5 441 Z " /><path fill="rgb(233,230,230)" stroke="rgb(233,230,230)" stroke-width="1" opacity="0.8470588235294118" d="M 473.5 441 L 476 441.5 L 473.5 442 L 473.5 441 Z " /><path fill="rgb(233,230,230)" stroke="rgb(233,230,230)" stroke-width="1" opacity="0.8470588235294118" d="M 463.5 443 L 466 443.5 L 463.5 444 L 463.5 443 Z " /><path fill="rgb(233,230,230)" stroke="rgb(233,230,230)" stroke-width="1" opacity="0.8470588235294118" d="M 487.5 448 L 490 448.5 L 487.5 449 L 487.5 448 Z " /><path fill="rgb(233,230,230)" stroke="rgb(233,230,230)" stroke-width="1" opacity="0.8470588235294118" d="M 422.5 457 L 421.5 459 L 422.5 457 Z " /><path fill="rgb(233,230,230)" stroke="rgb(233,230,230)" stroke-width="1" opacity="0.8470588235294118" d="M 419.5 459 L 418.5 461 L 419.5 459 Z " /><path fill="rgb(233,230,230)" stroke="rgb(233,230,230)" stroke-width="1" opacity="0.8470588235294118" d="M 240.5 460 L 243 460.5 L 240.5 461 L 240.5 460 Z " /><path fill="rgb(233,230,230)" stroke="rgb(233,230,230)" stroke-width="1" opacity="0.8470588235294118" d="M 258.5 464 L 261 464.5 L 258.5 465 L 258.5 464 Z " /><path fill="rgb(233,230,230)" stroke="rgb(233,230,230)" stroke-width="1" opacity="0.8470588235294118" d="M 413.5 464 L 410.5 468 L 413.5 464 Z " /><path fill="rgb(233,230,230)" stroke="rgb(233,230,230)" stroke-width="1" opacity="0.8470588235294118" d="M 264.5 465 L 267 465.5 L 264.5 466 L 264.5 465 Z " /><path fill="rgb(233,230,230)" stroke="rgb(233,230,230)" stroke-width="1" opacity="0.8470588235294118" d="M 270.5 466 L 274 466.5 L 270.5 467 L 270.5 466 Z " /><path fill="rgb(233,230,230)" stroke="rgb(233,230,230)" stroke-width="1" opacity="0.8470588235294118" d="M 340.5 466 L 344 467.5 L 342.5 467 Q 339.5 467.5 340.5 466 Z " /><path fill="rgb(233,230,230)" stroke="rgb(233,230,230)" stroke-width="1" opacity="0.8470588235294118" d="M 279.5 467 L 285 467.5 L 279.5 468 L 279.5 467 Z " /><path fill="rgb(233,230,230)" stroke="rgb(233,230,230)" stroke-width="1" opacity="0.8470588235294118" d="M 330.5 467 L 337 467.5 L 330.5 468 L 330.5 467 Z " /><path fill="rgb(233,230,230)" stroke="rgb(233,230,230)" stroke-width="1" opacity="0.8470588235294118" d="M 292.5 468 L 323 468.5 L 292.5 469 L 292.5 468 Z " /><path fill="rgb(233,230,230)" stroke="rgb(233,230,230)" stroke-width="1" opacity="0.8470588235294118" d="M 339.5 468 L 342 468.5 L 339.5 469 L 339.5 468 Z " /><path fill="rgb(233,230,230)" stroke="rgb(233,230,230)" stroke-width="1" opacity="0.8470588235294118" d="M 421.5 468 L 419.5 471 L 421.5 468 Z " /><path fill="rgb(233,230,230)" stroke="rgb(233,230,230)" stroke-width="1" opacity="0.8470588235294118" d="M 334.5 469 L 337 469.5 L 334.5 470 L 334.5 469 Z " /><path fill="rgb(233,230,230)" stroke="rgb(233,230,230)" stroke-width="1" opacity="0.8470588235294118" d="M 257.5 470 L 261 470.5 L 257.5 471 L 257.5 470 Z " /><path fill="rgb(233,230,230)" stroke="rgb(233,230,230)" stroke-width="1" opacity="0.8470588235294118" d="M 328.5 470 L 333 470.5 L 328.5 471 L 328.5 470 Z " /><path fill="rgb(233,230,230)" stroke="rgb(233,230,230)" stroke-width="1" opacity="0.8470588235294118" d="M 408.5 470 L 407.5 472 L 408.5 470 Z " /><path fill="rgb(233,230,230)" stroke="rgb(233,230,230)" stroke-width="1" opacity="0.8470588235294118" d="M 321.5 471 L 325 471.5 L 321.5 472 L 321.5 471 Z " /><path fill="rgb(233,230,230)" stroke="rgb(233,230,230)" stroke-width="1" opacity="0.8470588235294118" d="M 311.5 472 L 316 472.5 L 311.5 473 L 311.5 472 Z " /><path fill="rgb(233,230,230)" stroke="rgb(233,230,230)" stroke-width="1" opacity="0.8470588235294118" d="M 344.5 472 L 347 479.5 L 346 479.5 L 344.5 472 Z " /><path fill="rgb(233,230,230)" stroke="rgb(233,230,230)" stroke-width="1" opacity="0.8470588235294118" d="M 417.5 472 L 415.5 475 L 417.5 472 Z " /><path fill="rgb(233,230,230)" stroke="rgb(233,230,230)" stroke-width="1" opacity="0.8470588235294118" d="M 406.5 473 L 406 474.5 L 404.5 478 L 404 476.5 L 406.5 473 Z " /><path fill="rgb(233,230,230)" stroke="rgb(233,230,230)" stroke-width="1" opacity="0.8470588235294118" d="M 412.5 479 L 412 480.5 L 411.5 482 L 411 480.5 L 412.5 479 Z " /><path fill="rgb(233,230,230)" stroke="rgb(233,230,230)" stroke-width="1" opacity="0.8470588235294118" d="M 402.5 481 L 403 483.5 L 402 483.5 L 402.5 481 Z " /><path fill="rgb(233,230,230)" stroke="rgb(233,230,230)" stroke-width="1" opacity="0.8470588235294118" d="M 349.5 485 L 352 488.5 L 350 487.5 L 349.5 485 Z " /><path fill="rgb(233,230,230)" stroke="rgb(233,230,230)" stroke-width="1" opacity="0.8470588235294118" d="M 401.5 485 L 402 487.5 L 401 488.5 L 401 507.5 L 404 520.5 L 403 520.5 L 401.5 518 L 396.5 523 L 393.5 523 L 391.5 522 L 391.5 524 L 381 517.5 L 380.5 516 L 378.5 516 L 375 513.5 L 377.5 515 L 379.5 516 L 380 510.5 Q 387.5 505 389 493.5 L 395.5 487 Q 401.9 489 401.5 485 Z " /><path fill="rgb(233,230,230)" stroke="rgb(233,230,230)" stroke-width="1" opacity="0.8470588235294118" d="M 352.5 490 L 353.5 492 L 352.5 490 Z " /><path fill="rgb(233,230,230)" stroke="rgb(233,230,230)" stroke-width="1" opacity="0.8470588235294118" d="M 354.5 493 L 355.5 495 L 354.5 493 Z " /><path fill="rgb(233,230,230)" stroke="rgb(233,230,230)" stroke-width="1" opacity="0.8470588235294118" d="M 357.5 497 L 368.5 509 L 357.5 497 Z " /><path fill="rgb(233,230,230)" stroke="rgb(233,230,230)" stroke-width="1" opacity="0.8470588235294118" d="M 356.5 502 L 357.5 504 L 356.5 502 Z " /><path fill="rgb(233,230,230)" stroke="rgb(233,230,230)" stroke-width="1" opacity="0.8470588235294118" d="M 408.5 507 L 409 510.5 L 408 510.5 L 408.5 507 Z " /><path fill="rgb(233,230,230)" stroke="rgb(233,230,230)" stroke-width="1" opacity="0.8470588235294118" d="M 371.5 510 L 373.5 513 L 371.5 510 Z " /><path fill="rgb(233,230,230)" stroke="rgb(233,230,230)" stroke-width="1" opacity="0.8470588235294118" d="M 409.5 512 L 410 514.5 L 409 514.5 L 409.5 512 Z " /><path fill="rgb(233,230,230)" stroke="rgb(233,230,230)" stroke-width="1" opacity="0.8470588235294118" d="M 377.5 521 L 378.5 523 L 377.5 521 Z " /><path fill="rgb(233,230,230)" stroke="rgb(233,230,230)" stroke-width="1" opacity="0.8470588235294118" d="M 405.5 526 L 406 529 L 403 528.5 L 405 528 L 405.5 526 Z " /><path fill="rgb(233,230,230)" stroke="rgb(233,230,230)" stroke-width="1" opacity="0.8470588235294118" d="M 491.5 527 L 490.5 529 L 491.5 527 Z " /><path fill="rgb(233,230,230)" stroke="rgb(233,230,230)" stroke-width="1" opacity="0.8470588235294118" d="M 486.5 532 L 483.5 536 L 486.5 532 Z " /><path fill="rgb(233,230,230)" stroke="rgb(233,230,230)" stroke-width="1" opacity="0.8470588235294118" d="M 611.5 534 L 615 534.5 L 611.5 535 L 611.5 534 Z " /><path fill="rgb(233,230,230)" stroke="rgb(233,230,230)" stroke-width="1" opacity="0.8470588235294118" d="M 541 535 L 546.5 535 L 551.5 537 L 567 546.5 L 565.5 547 L 541 537 L 541 535 Z " /><path fill="rgb(233,230,230)" stroke="rgb(233,230,230)" stroke-width="1" opacity="0.8470588235294118" d="M 583.5 535 L 586 535.5 L 583.5 536 L 583.5 535 Z " /><path fill="rgb(233,230,230)" stroke="rgb(233,230,230)" stroke-width="1" opacity="0.8470588235294118" d="M 598.5 535 L 603 535.5 L 598.5 536 L 598.5 535 Z " /><path fill="rgb(233,230,230)" stroke="rgb(233,230,230)" stroke-width="1" opacity="0.8470588235294118" d="M 603.5 548 L 649.5 548 L 663 550.5 L 613.5 551 L 612.5 550 L 597 549.5 L 603.5 548 Z " /><path fill="rgb(233,230,230)" stroke="rgb(233,230,230)" stroke-width="1" opacity="0.8470588235294118" d="M 466.5 553 L 465.5 555 L 466.5 553 Z " /><path fill="rgb(233,230,230)" stroke="rgb(233,230,230)" stroke-width="1" opacity="0.8470588235294118" d="M 502.5 563 L 515.5 563 L 516 565.5 L 520 578.5 L 523 583.5 L 521.5 583 L 515.5 581 L 507 572.5 L 502.5 563 Z " /><path fill="rgb(233,230,230)" stroke="rgb(233,230,230)" stroke-width="1" opacity="0.8470588235294118" d="M 517 563 L 528.5 563 L 530.5 564 Q 546.3 579.2 566.5 590 L 582.5 594 L 611.5 595 L 612.5 594 L 621.5 594 L 638.5 591 L 663.5 583 L 686.5 589 L 700 594.5 Q 697.8 606.3 689.5 612 L 675.5 620 L 667.5 622 L 647.5 622 L 646.5 621 L 639.5 621 L 638.5 620 L 631.5 620 L 630.5 619 L 613.5 617 L 586.5 611 L 585 609.5 Q 581.7 604.3 582.5 595 L 581 603.5 L 583 610 L 547.5 601 Q 535.5 597 528 588.5 Q 519.5 578.2 517 563 Z " /><path fill="rgb(233,230,230)" stroke="rgb(233,230,230)" stroke-width="1" opacity="0.8470588235294118" d="M 490 564 L 500.5 564 L 501 566.5 L 502 570 Q 499.3 571.9 492.5 571 Q 488.8 569.5 490 564 Z " /><path fill="rgb(233,230,230)" stroke="rgb(233,230,230)" stroke-width="1" opacity="0.8470588235294118" d="M 518.5 586 Q 524.9 585.6 527 589.5 L 532 598.5 Q 528.1 605.4 519 606 L 514.5 598 L 508.5 601 L 503 595.5 L 503 593.5 L 506.5 588 L 510.5 590 L 514.5 590 L 518.5 586 Z " /><path fill="rgb(233,230,230)" stroke="rgb(233,230,230)" stroke-width="1" opacity="0.8470588235294118" d="M 702 595 L 730 605 Q 731.5 611.3 727.5 613 L 722.5 615 L 699.5 616 L 692 614 L 700 603.5 L 702 595 Z " /><path fill="rgb(233,230,230)" stroke="rgb(233,230,230)" stroke-width="1" opacity="0.8470588235294118" d="M 502 599 L 506 601.5 L 508.5 605 L 513.5 601 L 516 603.5 L 518 609.5 Q 512.1 609.6 510 613.5 Q 510.8 615.8 508.5 615 L 502 607.5 L 501 601.5 L 502 599 Z " /><path fill="rgb(233,230,230)" stroke="rgb(233,230,230)" stroke-width="1" opacity="0.8470588235294118" d="M 733 607 L 760 613.5 L 755.5 617 L 742.5 618 L 734.5 615 L 732 612.5 L 733 607 Z " /><path fill="rgb(233,230,230)" stroke="rgb(233,230,230)" stroke-width="1" opacity="0.8470588235294118" d="M 515.5 612 L 518.5 612 L 525 616.5 L 528 621.5 Q 522.5 622 521 626.5 L 520.5 628 L 510 617.5 L 511 616.5 L 513.5 613 L 515.5 612 Z " /><path fill="rgb(233,230,230)" stroke="rgb(233,230,230)" stroke-width="1" opacity="0.8470588235294118" d="M 888.5 623 L 889.5 625 L 888.5 623 Z " /><path fill="rgb(233,230,230)" stroke="rgb(233,230,230)" stroke-width="1" opacity="0.8470588235294118" d="M 526.5 624 Q 538.5 625 545 631.5 L 544.5 636 L 541 635 L 537.5 643 L 522 629.5 L 524.5 625 L 526.5 624 Z " /><path fill="rgb(233,230,230)" stroke="rgb(233,230,230)" stroke-width="1" opacity="0.8470588235294118" d="M 783.5 630 Q 790 629 792 632.5 L 793.5 635 L 799.5 631 L 803.5 631 L 809 637.5 L 774 650 Q 775.5 641.7 772 637.5 Q 775.8 631.8 783.5 630 Z " /><path fill="rgb(233,230,230)" stroke="rgb(233,230,230)" stroke-width="1" opacity="0.8470588235294118" d="M 543.5 637 L 555.5 639 L 589 651.5 L 589 660.5 L 587.5 667 L 560.5 657 L 542.5 647 L 539 643.5 L 541 638 L 543.5 637 Z " /><path fill="rgb(233,230,230)" stroke="rgb(233,230,230)" stroke-width="1" opacity="0.8470588235294118" d="M 764.5 638 Q 769 637 770 639.5 Q 772.5 643 771 650.5 L 731.5 666 Q 727.5 664 727 658.5 Q 732.3 648.8 740.5 642 L 744.5 641 Q 747.5 645 754.5 645 L 764.5 638 Z " /><path fill="rgb(233,230,230)" stroke="rgb(233,230,230)" stroke-width="1" opacity="0.8470588235294118" d="M 873.5 641 L 871.5 644 L 873.5 641 Z " /><path fill="rgb(233,230,230)" stroke="rgb(233,230,230)" stroke-width="1" opacity="0.8470588235294118" d="M 862.5 651 L 859.5 655 L 862.5 651 Z " /><path fill="rgb(233,230,230)" stroke="rgb(233,230,230)" stroke-width="1" opacity="0.8470588235294118" d="M 591 652 L 605.5 656 L 622.5 659 L 641.5 660 L 642.5 661 L 674.5 662 L 676 663.5 L 677 671.5 L 676 676.5 L 673.5 679 L 640.5 678 L 591 668 L 590 656.5 L 591 652 Z " /><path fill="rgb(233,230,230)" stroke="rgb(233,230,230)" stroke-width="1" opacity="0.8470588235294118" d="M 713.5 654 Q 721.6 654.4 724 660.5 L 728 666.5 Q 717.2 672.5 703 674 L 702 665.5 L 708.5 657 L 713.5 654 Z " /><path fill="rgb(233,230,230)" stroke="rgb(233,230,230)" stroke-width="1" opacity="0.8470588235294118" d="M 686.5 661 Q 696.8 658.8 699 664.5 L 701 675 L 678.5 679 L 678 675.5 L 679 674.5 L 679 664 L 686.5 661 Z " /><path fill="rgb(233,230,230)" stroke="rgb(233,230,230)" stroke-width="1" opacity="0.8470588235294118" d="M 847.5 665 L 846.5 667 L 847.5 665 Z " /><path fill="rgb(233,230,230)" stroke="rgb(233,230,230)" stroke-width="1" opacity="0.8470588235294118" d="M 844.5 668 L 843.5 670 L 844.5 668 Z " /><path fill="rgb(233,230,230)" stroke="rgb(233,230,230)" stroke-width="1" opacity="0.8470588235294118" d="M 763.5 685 L 765 685.5 Q 751 694.5 731.5 698 L 731.5 697 L 763.5 685 Z " /><path fill="rgb(233,230,230)" stroke="rgb(233,230,230)" stroke-width="1" opacity="0.8470588235294118" d="M 825.5 685 L 824.5 687 L 825.5 685 Z " /><path fill="rgb(233,230,230)" stroke="rgb(233,230,230)" stroke-width="1" opacity="0.8470588235294118" d="M 622.5 708 L 662.5 708 L 663.5 709 L 689 709.5 L 677.5 712 L 647.5 713 L 646.5 712 L 637.5 712 L 636.5 711 L 624.5 710 L 622.5 708 Z " /><path fill="rgb(228,2,3)" stroke="rgb(228,2,3)" stroke-width="1" opacity="0.996078431372549" d="M 509.5 522 L 523.5 522 Q 525.8 525.2 532.5 524 L 575.5 540 Q 582.5 539 585.5 542 L 603.5 542 L 610.5 540 L 642.5 540 L 649.5 542 L 657.5 542 Q 660.2 544.8 666.5 544 L 669.5 546 L 674.5 546 L 701.5 556 L 733.5 572 L 785.5 602 L 822.5 618 L 832.5 620 L 835.5 622 L 840.5 622 L 843.5 624 L 849.5 624 L 853.5 626 Q 861.5 625 865.5 628 L 875.5 628 L 877 629.5 L 873.5 634 L 854 650 Q 855.1 652.7 852.5 652 Q 828.5 677 800.5 698 L 778.5 712 L 753.5 724 L 750.5 724 L 748.5 726 L 745.5 726 L 725.5 734 L 721.5 734 L 718.5 736 L 705.5 738 L 701.5 740 L 695.5 740 L 690.5 742 Q 681.5 741 676.5 744 L 660.5 744 L 659.5 745 L 637.5 745 L 636.5 744 L 620.5 744 L 615.5 742 L 607.5 742 Q 604.5 739 597.5 740 L 594.5 738 L 590.5 738 L 576.5 734 L 574.5 732 L 561.5 728 L 529.5 710 L 504 686.5 Q 489.3 670.2 480 648.5 L 466 611.5 L 466 607.5 L 462 599.5 L 456 578.5 L 450 564 L 463.5 560 Q 475.7 552.7 484 541.5 L 486 538.5 Q 494.4 526.9 509.5 522 Z M 541 535 L 541 537 L 566 547 L 567 547 L 552 537 L 547 535 L 541 535 Z M 604 548 L 597 550 L 613 550 L 614 551 L 663 551 L 650 548 L 604 548 Z M 519 556 L 520 558 Q 521 555 519 556 Z M 522 558 L 522 560 L 524 561 Q 523 563 519 562 L 516 561 L 504 561 L 503 562 L 498 561 L 478 564 L 470 568 Q 467 567 468 570 Q 466 571 469 572 L 475 568 L 480 575 L 481 579 L 494 600 L 494 602 L 516 630 L 541 649 L 569 664 L 572 664 L 574 666 L 583 668 L 586 670 L 598 672 L 601 674 L 616 676 L 620 678 L 626 678 L 631 680 L 639 680 L 645 682 L 683 682 L 689 680 L 696 680 Q 699 677 706 678 L 709 676 L 713 676 L 729 670 L 732 670 L 777 652 L 781 652 L 783 650 L 809 642 L 811 640 L 814 640 L 829 634 L 840 628 Q 847 630 846 626 L 835 626 Q 832 623 825 624 L 822 622 L 816 622 L 812 620 Q 804 621 801 618 L 793 618 L 789 616 L 780 616 L 776 614 L 769 614 L 766 612 L 751 610 L 724 602 L 722 600 L 719 600 L 689 588 L 684 589 L 684 588 L 682 586 L 677 587 L 677 586 L 675 584 Q 670 583 669 585 L 668 583 L 672 580 L 678 579 L 678 578 L 673 578 L 652 586 Q 646 585 645 588 L 640 588 L 637 590 Q 629 589 626 592 L 615 592 L 614 593 L 579 592 L 568 588 L 565 589 L 565 588 L 545 574 L 543 575 L 544 572 L 536 566 L 534 567 L 534 566 L 532 564 L 530 564 L 530 563 L 522 558 Z M 680 577 L 680 578 Q 684 577 686 580 Q 690 581 689 578 L 680 577 Z M 761 686 L 732 697 L 732 698 Q 750 695 763 687 L 761 686 Z M 623 708 L 625 710 L 637 711 L 638 712 L 647 712 L 648 713 L 678 712 L 689 710 L 664 709 L 663 708 L 623 708 Z " /><path fill="rgb(228,2,3)" stroke="rgb(228,2,3)" stroke-width="1" opacity="0.996078431372549" d="M 593.5 594 L 596 594.5 L 593.5 595 L 593.5 594 Z " /><path fill="rgb(228,2,3)" stroke="rgb(228,2,3)" stroke-width="1" opacity="0.996078431372549" d="M 546.5 604 L 556.5 606 L 559.5 608 L 564.5 608 L 567.5 610 L 572.5 610 L 575.5 612 L 589.5 614 L 592.5 616 L 598.5 616 L 603.5 619 L 607.5 618 Q 610.5 619.5 607.5 621 L 595 631.5 L 593 636.5 L 594.5 637 L 603.5 626 L 617.5 620 L 621.5 622 Q 631.2 620.3 635.5 624 L 644.5 624 L 652.5 626 L 664.5 626 L 679.5 622 L 688.5 616 L 693.5 616 L 696.5 618 L 723.5 618 L 731.5 615 L 738.5 620 L 750.5 621 L 755.5 620 L 763.5 615 L 766.5 615 L 767.5 616 L 775.5 616 L 778.5 618 L 786 618.5 L 778.5 624 L 765.5 630 L 762.5 630 L 746.5 636 L 742.5 636 L 739.5 638 L 734.5 638 L 731.5 640 L 726.5 640 L 723.5 642 L 718.5 642 L 714.5 644 L 709.5 644 L 702.5 646 L 680.5 654 L 676 657.5 L 674.5 660 L 648.5 659 L 647.5 658 L 631.5 658 L 624.5 656 L 616.5 656 Q 612.9 653.1 605.5 654 L 565.5 640 L 548 636 Q 548.6 630.7 544.5 628 L 541 625.5 L 540 615.5 Q 541.4 607.9 546.5 604 Z " /></svg>